<svg width="2108" height="200" viewBox="0 0 2108 200" fill="none" xmlns="http://www.w3.org/2000/svg">
<path d="M158.869 61.8853L186.264 48.3583C168.752 19.3759 136.946 0 100.613 0C45.3848 0 0.613281 44.7715 0.613281 100C0.613281 112.924 3.06481 125.274 7.5282 136.613L36.2369 122.438C33.6921 115.25 32.3073 107.513 32.3073 99.4536C32.3073 61.4274 63.1336 30.6011 101.16 30.6011C125.325 30.6011 146.583 43.0504 158.869 61.8853Z" fill="#08163F"/>
<path d="M100.613 200C155.842 200 200.613 155.228 200.613 100C200.613 88.3296 198.614 77.1261 194.94 66.7133L167.327 80.3477C169.075 86.414 170.012 92.8244 170.012 99.4536C170.012 137.48 139.186 168.306 101.16 168.306C78.4552 168.306 58.3174 157.316 45.7754 140.366L16.8522 154.648C34.7051 181.956 65.552 200 100.613 200Z" fill="#F7911C"/>
<path d="M192.613 31L149.613 0H292.613C328.788 0 358.113 29.3254 358.113 65.5C358.113 101.675 328.788 131 292.613 131H209.613V100H292.613C311.667 100 327.113 84.5537 327.113 65.5C327.113 46.4463 311.667 31 292.613 31H192.613Z" fill="#08163F"/>
<path d="M209.613 161H247.613V200H209.613V161Z" fill="#08163F"/>
<path d="M301.613 0H536.613L555.113 34H346.613L301.613 0Z" fill="#08163F"/>
<path d="M372.113 169H517.331V200H372.113V169Z" fill="#08163F"/>
<path d="M372.113 83.5H504.613V100V116.5H372.113V83.5Z" fill="#08163F"/>
<path d="M1158.11 0H1410.11L1434.11 34H1206.61L1158.11 0Z" fill="#08163F"/>
<path d="M1256.11 169H1401.33V200H1256.11V169Z" fill="#08163F"/>
<path d="M1256.11 83.5H1388.61V100V116.5H1256.11V83.5Z" fill="#08163F"/>
<path d="M704 0V146.776L667.876 94.3011V0H704Z" fill="#08163F"/>
<path d="M667.876 199.397L573.603 62.4499V62.5073L537.48 10.0322V9.9747L530.613 0H566.623L573.603 10.1403V10.3094L667.876 147.257V146.442L704 198.917V199.732L704.184 200L667.876 200V199.397Z" fill="#08163F"/>
<path d="M537.48 200V62.1726L573.603 114.648V200H537.48Z" fill="#08163F"/>
<path d="M817.385 103.8L846.553 84.2837L823.571 76.6534C808.893 70.7985 802.079 64.8394 799.626 59.6401C793.143 48.9357 800.041 40.4068 811.179 34.1201C823.23 27.359 840.475 26.9352 856.99 29.1026C880.687 32.8818 891.66 48.5497 892.113 64.7441H930.118C929.741 29.1528 904.326 10.9477 871.843 3.84978C837.117 -3.73069 810.992 0.808285 792.517 9.45078C768.653 20.5295 761.205 37.8299 762.157 55.8121C763.908 85.6503 785.872 97.3488 817.385 103.8Z" fill="#F7911C"/>
<path d="M871.544 96.433L842.376 115.949L864.655 123.347C879.333 129.201 886.148 135.161 888.601 140.36C895.084 151.064 888.186 159.593 877.048 165.88C864.997 172.641 847.751 173.065 831.236 170.897C807.54 167.118 800.071 151.45 799.618 135.256H761.613C761.99 170.847 783.901 189.052 816.383 196.15C851.11 203.731 877.235 199.192 895.709 190.549C919.573 179.471 927.022 162.17 926.07 144.188C924.318 114.35 903.057 102.884 871.544 96.433Z" fill="#08163F"/>
<path d="M1011.11 63.4361H976.525V200H1011.11V63.4361Z" fill="#08163F"/>
<path d="M908.113 0H1073.44V31.5H940.613L908.113 0Z" fill="#08163F"/>
<path d="M1873.11 63.4361H1838.53V200H1873.11V63.4361Z" fill="#08163F"/>
<path d="M1744.11 0H1935.44V31.5H1785.61L1744.11 0Z" fill="#08163F"/>
<path d="M1104.61 200V161H1066.61V200H1104.61Z" fill="#08163F"/>
<path d="M1173.53 154.707L1199.05 200H1239.5L1205.07 138.902C1195.81 146.071 1185.13 151.503 1173.53 154.707Z" fill="#08163F"/>
<path d="M1066.61 0V31H1149.61C1168.67 31 1184.11 46.4463 1184.11 65.5C1184.11 84.5537 1168.67 100 1149.61 100H1066.61V131H1149.61C1153.06 131 1156.43 130.735 1159.73 130.223L1159.77 130.288C1171.93 128.454 1182.98 123.208 1191.91 115.553L1191.9 115.525C1200.48 108.266 1207.16 98.8393 1211.11 88.0906C1213.7 81.0487 1215.11 73.4393 1215.11 65.5C1215.11 29.3254 1185.79 0 1149.61 0H1066.61Z" fill="#08163F"/>
<path d="M1415.48 200V62.1726L1451.6 114.648V200H1415.48Z" fill="#08163F"/>
<path d="M1545.88 199.397L1451.6 62.4499V62.5073L1415.48 10.0322V9.9747L1408.61 0H1444.62L1451.6 10.1403V10.3094L1545.88 147.257V146.442L1582 198.917V199.732L1582.18 200L1545.88 200V199.397Z" fill="#08163F"/>
<path d="M1582 0V146.776L1545.88 94.3011V0H1582Z" fill="#08163F"/>
<path d="M1796.48 98.7013V193.074H1762.71V169.772C1744.55 188.419 1719.16 200 1691.08 200C1646.25 200 1608.32 170.508 1595.61 129.87H1629.05C1640.17 152.925 1663.76 168.831 1691.08 168.831C1718.39 168.831 1741.98 152.925 1753.11 129.87H1705.36V98.7013H1796.48Z" fill="#F7911C"/>
<path d="M1627.63 99.5671C1627.86 61.7519 1658.59 31.1688 1696.46 31.1688C1722.73 31.1688 1745.56 45.8893 1757.16 67.5325H1791.07C1777.59 28.2411 1740.32 0 1696.46 0C1641.37 0 1596.69 44.5378 1596.46 99.5671H1627.63Z" fill="#08163F"/>
<path d="M1926.61 0H1964.17V78.6026H2048.01V111.79H1964.17V200H1926.61V0Z" fill="#08163F"/>
<path d="M2107.4 0H2069.84V200H2107.4V0Z" fill="#08163F"/>
</svg>
