<svg width="284.58" height="171.45" viewBox="0 0 2108 1270" fill="none" xmlns="http://www.w3.org/2000/svg">
<path d="M124 663.588V551.09L455.671 27.5H549.562V187.666H492.311L269.035 541.175V547.277H732V663.588H124ZM496.891 808.5V629.267L498.418 578.929V27.5H632.003V808.5H496.891Z" fill="#08163F"/>
<path d="M1014.87 713.052C1045.51 727.014 1071.71 720.19 1092.14 705.751C1102.68 698.298 1109.9 688.226 1114.48 676.405C1122.37 656.121 1126.65 636.529 1128.8 617.969L1151.59 415.918L1322 329.75L1300.2 561.8C1297.34 595.855 1290.64 636.906 1280.48 665.511C1269.49 696.473 1255.73 723.938 1241.83 746.727C1223.6 776.394 1194.51 798.129 1158.52 813.626C1125.59 827.716 1090.39 834.437 1054.5 835.689C975.054 838.389 920.743 823.25 887.057 799.261C854.765 776.265 837.812 743.024 828.884 704.138C821.667 672.702 820.308 645.463 820.949 622.921V576.055L996.041 490.202L984.152 631.835C979.725 679.487 990.907 701.784 1014.87 713.052Z" fill="#08163F"/>
<path d="M786 572.407L959.383 487.229L990.096 212.876C997.195 162.754 1013.3 146.075 1023.78 137.603C1061.43 107.158 1097.76 126.047 1108.99 135.622C1129.1 152.726 1135.74 180.451 1133.58 210.896L1116.91 410.966L1288.31 328.759C1300.3 245.64 1298.91 182.292 1285.74 135.622C1268.5 74.473 1230.12 35.9915 1175.37 16.153C1114.2 -6.08788 1037.65 -6.60007 971.272 22.3924C879.775 62.3545 836.529 124.986 825.412 212.876L786 572.407Z" fill="#F7911C"/>
<path d="M1376 663.588V551.09L1707.67 27.5H1801.56V187.666H1744.31L1521.03 541.175V547.277H1984V663.588H1376ZM1748.89 808.5V629.267L1750.42 578.929V27.5H1884V808.5H1748.89Z" fill="#08163F"/>
<path d="M158.869 969.885L186.264 956.358C168.752 927.376 136.946 908 100.613 908C45.3848 908 0.613281 952.772 0.613281 1008C0.613281 1020.92 3.06481 1033.27 7.5282 1044.61L36.2369 1030.44C33.6921 1023.25 32.3073 1015.51 32.3073 1007.45C32.3073 969.427 63.1336 938.601 101.16 938.601C125.325 938.601 146.583 951.05 158.869 969.885Z" fill="#08163F"/>
<path d="M100.613 1108C155.842 1108 200.613 1063.23 200.613 1008C200.613 996.33 198.614 985.126 194.94 974.713L167.327 988.348C169.075 994.414 170.012 1000.82 170.012 1007.45C170.012 1045.48 139.186 1076.31 101.16 1076.31C78.4552 1076.31 58.3174 1065.32 45.7754 1048.37L16.8522 1062.65C34.7051 1089.96 65.552 1108 100.613 1108Z" fill="#F7911C"/>
<path d="M192.613 939L149.613 908H292.613C328.788 908 358.113 937.325 358.113 973.5C358.113 1009.67 328.788 1039 292.613 1039H209.613V1008H292.613C311.667 1008 327.113 992.554 327.113 973.5C327.113 954.446 311.667 939 292.613 939H192.613Z" fill="#08163F"/>
<path d="M209.613 1069H247.613V1108H209.613V1069Z" fill="#08163F"/>
<path d="M301.613 908H536.613L555.113 942H346.613L301.613 908Z" fill="#08163F"/>
<path d="M372.113 1077H517.331V1108H372.113V1077Z" fill="#08163F"/>
<path d="M372.113 991.5H504.613V1008V1024.5H372.113V991.5Z" fill="#08163F"/>
<path d="M1158.11 908H1410.11L1434.11 942H1206.61L1158.11 908Z" fill="#08163F"/>
<path d="M1256.11 1077H1401.33V1108H1256.11V1077Z" fill="#08163F"/>
<path d="M1256.11 991.5H1388.61V1008V1024.5H1256.11V991.5Z" fill="#08163F"/>
<path d="M704 908V1054.78L667.876 1002.3V908H704Z" fill="#08163F"/>
<path d="M667.876 1107.4L573.603 970.45V970.507L537.48 918.032V917.975L530.613 908H566.623L573.603 918.14V918.309L667.876 1055.26V1054.44L704 1106.92V1107.73L704.184 1108L667.876 1108V1107.4Z" fill="#08163F"/>
<path d="M537.48 1108V970.173L573.603 1022.65V1108H537.48Z" fill="#08163F"/>
<path d="M817.385 1011.8L846.553 992.284L823.571 984.653C808.893 978.799 802.079 972.839 799.626 967.64C793.143 956.936 800.041 948.407 811.179 942.12C823.23 935.359 840.475 934.935 856.99 937.103C880.687 940.882 891.66 956.55 892.113 972.744H930.118C929.741 937.153 904.326 918.948 871.843 911.85C837.117 904.269 810.992 908.808 792.517 917.451C768.653 928.529 761.205 945.83 762.157 963.812C763.908 993.65 785.872 1005.35 817.385 1011.8Z" fill="#F7911C"/>
<path d="M871.544 1004.43L842.376 1023.95L864.655 1031.35C879.333 1037.2 886.148 1043.16 888.601 1048.36C895.084 1059.06 888.186 1067.59 877.048 1073.88C864.997 1080.64 847.751 1081.06 831.236 1078.9C807.54 1075.12 800.071 1059.45 799.618 1043.26H761.613C761.99 1078.85 783.901 1097.05 816.383 1104.15C851.11 1111.73 877.235 1107.19 895.709 1098.55C919.573 1087.47 927.022 1070.17 926.07 1052.19C924.318 1022.35 903.057 1010.88 871.544 1004.43Z" fill="#08163F"/>
<path d="M1011.11 971.436H976.525V1108H1011.11V971.436Z" fill="#08163F"/>
<path d="M908.113 908H1073.44V939.5H940.613L908.113 908Z" fill="#08163F"/>
<path d="M1873.11 971.436H1838.53V1108H1873.11V971.436Z" fill="#08163F"/>
<path d="M1744.11 908H1935.44V939.5H1785.61L1744.11 908Z" fill="#08163F"/>
<path d="M1104.61 1108V1069H1066.61V1108H1104.61Z" fill="#08163F"/>
<path d="M1173.53 1062.71L1199.05 1108H1239.5L1205.07 1046.9C1195.81 1054.07 1185.13 1059.5 1173.53 1062.71Z" fill="#08163F"/>
<path d="M1066.61 908V939H1149.61C1168.67 939 1184.11 954.446 1184.11 973.5C1184.11 992.554 1168.67 1008 1149.61 1008H1066.61V1039H1149.61C1153.06 1039 1156.43 1038.73 1159.73 1038.22L1159.77 1038.29C1171.93 1036.45 1182.98 1031.21 1191.91 1023.55L1191.9 1023.52C1200.48 1016.27 1207.16 1006.84 1211.11 996.091C1213.7 989.049 1215.11 981.439 1215.11 973.5C1215.11 937.325 1185.79 908 1149.61 908H1066.61Z" fill="#08163F"/>
<path d="M1415.48 1108V970.173L1451.6 1022.65V1108H1415.48Z" fill="#08163F"/>
<path d="M1545.88 1107.4L1451.6 970.45V970.507L1415.48 918.032V917.975L1408.61 908H1444.62L1451.6 918.14V918.309L1545.88 1055.26V1054.44L1582 1106.92V1107.73L1582.18 1108L1545.88 1108V1107.4Z" fill="#08163F"/>
<path d="M1582 908V1054.78L1545.88 1002.3V908H1582Z" fill="#08163F"/>
<path d="M1796.48 1006.7V1101.07H1762.71V1077.77C1744.55 1096.42 1719.16 1108 1691.08 1108C1646.25 1108 1608.32 1078.51 1595.61 1037.87H1629.05C1640.17 1060.92 1663.76 1076.83 1691.08 1076.83C1718.39 1076.83 1741.98 1060.92 1753.11 1037.87H1705.36V1006.7H1796.48Z" fill="#F7911C"/>
<path d="M1627.63 1007.57C1627.86 969.752 1658.59 939.169 1696.46 939.169C1722.73 939.169 1745.56 953.889 1757.16 975.532H1791.07C1777.59 936.241 1740.32 908 1696.46 908C1641.37 908 1596.69 952.538 1596.46 1007.57H1627.63Z" fill="#08163F"/>
<path d="M1926.61 908H1964.17V986.603H2048.01V1019.79H1964.17V1108H1926.61V908Z" fill="#08163F"/>
<path d="M2107.4 908H2069.84V1108H2107.4V908Z" fill="#08163F"/>
<line x1="29" y1="1218" x2="109" y2="1218" stroke="#404040" stroke-width="6"/>
<path d="M169.744 1250.48C165.584 1250.48 161.584 1249.81 157.744 1248.48C153.958 1247.09 151.024 1245.33 148.944 1243.2L151.264 1238.64C153.238 1240.56 155.878 1242.19 159.184 1243.52C162.544 1244.8 166.064 1245.44 169.744 1245.44C173.264 1245.44 176.118 1245.01 178.304 1244.16C180.544 1243.25 182.171 1242.05 183.184 1240.56C184.251 1239.07 184.784 1237.41 184.784 1235.6C184.784 1233.41 184.144 1231.65 182.864 1230.32C181.638 1228.99 180.011 1227.95 177.984 1227.2C175.958 1226.4 173.718 1225.71 171.264 1225.12C168.811 1224.53 166.358 1223.92 163.904 1223.28C161.451 1222.59 159.184 1221.68 157.104 1220.56C155.078 1219.44 153.424 1217.97 152.144 1216.16C150.918 1214.29 150.304 1211.87 150.304 1208.88C150.304 1206.11 151.024 1203.57 152.464 1201.28C153.958 1198.93 156.224 1197.07 159.264 1195.68C162.304 1194.24 166.198 1193.52 170.944 1193.52C174.091 1193.52 177.211 1193.97 180.304 1194.88C183.398 1195.73 186.064 1196.93 188.304 1198.48L186.304 1203.2C183.904 1201.6 181.344 1200.43 178.624 1199.68C175.958 1198.93 173.371 1198.56 170.864 1198.56C167.504 1198.56 164.731 1199.01 162.544 1199.92C160.358 1200.83 158.731 1202.05 157.664 1203.6C156.651 1205.09 156.144 1206.8 156.144 1208.72C156.144 1210.91 156.758 1212.67 157.984 1214C159.264 1215.33 160.918 1216.37 162.944 1217.12C165.024 1217.87 167.291 1218.53 169.744 1219.12C172.198 1219.71 174.624 1220.35 177.024 1221.04C179.478 1221.73 181.718 1222.64 183.744 1223.76C185.824 1224.83 187.478 1226.27 188.704 1228.08C189.984 1229.89 190.624 1232.27 190.624 1235.2C190.624 1237.92 189.878 1240.45 188.384 1242.8C186.891 1245.09 184.598 1246.96 181.504 1248.4C178.464 1249.79 174.544 1250.48 169.744 1250.48ZM201.923 1250V1194H206.803L232.403 1237.68H229.843L255.203 1194H260.083V1250H254.403V1202.88H255.763L232.403 1242.88H229.603L206.083 1202.88H207.603V1250H201.923ZM267.769 1250L293.369 1194H299.209L324.809 1250H318.569L295.049 1197.44H297.449L273.929 1250H267.769ZM277.849 1235.04L279.609 1230.24H312.169L313.929 1235.04H277.849ZM332.473 1250V1194H353.433C358.18 1194 362.26 1194.77 365.673 1196.32C369.086 1197.81 371.7 1200 373.513 1202.88C375.38 1205.71 376.313 1209.15 376.313 1213.2C376.313 1217.15 375.38 1220.56 373.513 1223.44C371.7 1226.27 369.086 1228.45 365.673 1230C362.26 1231.49 358.18 1232.24 353.433 1232.24H335.753L338.393 1229.52V1250H332.473ZM370.713 1250L356.313 1229.68H362.713L377.193 1250H370.713ZM338.393 1230L335.753 1227.2H353.273C358.873 1227.2 363.113 1225.97 365.993 1223.52C368.926 1221.07 370.393 1217.63 370.393 1213.2C370.393 1208.72 368.926 1205.25 365.993 1202.8C363.113 1200.35 358.873 1199.12 353.273 1199.12H335.753L338.393 1196.32V1230ZM398.784 1250V1199.12H379.104V1194H424.384V1199.12H404.704V1250H398.784ZM437.522 1219.04H467.122V1224.08H437.522V1219.04ZM438.162 1244.88H471.842V1250H432.242V1194H470.642V1199.12H438.162V1244.88ZM484.158 1250V1194H505.118C509.864 1194 513.944 1194.77 517.358 1196.32C520.771 1197.81 523.384 1200 525.198 1202.88C527.064 1205.71 527.998 1209.15 527.998 1213.2C527.998 1217.15 527.064 1220.56 525.198 1223.44C523.384 1226.27 520.771 1228.45 517.358 1230C513.944 1231.49 509.864 1232.24 505.118 1232.24H487.438L490.078 1229.52V1250H484.158ZM522.398 1250L507.998 1229.68H514.398L528.878 1250H522.398ZM490.078 1230L487.438 1227.2H504.958C510.558 1227.2 514.798 1225.97 517.678 1223.52C520.611 1221.07 522.078 1217.63 522.078 1213.2C522.078 1208.72 520.611 1205.25 517.678 1202.8C514.798 1200.35 510.558 1199.12 504.958 1199.12H487.438L490.078 1196.32V1230ZM550.748 1250L576.348 1194H582.188L607.788 1250H601.548L578.028 1197.44H580.428L556.908 1250H550.748ZM560.828 1235.04L562.588 1230.24H595.148L596.908 1235.04H560.828ZM615.451 1250V1194H620.331L658.971 1242.64H656.411V1194H662.251V1250H657.371L618.811 1201.36H621.371V1250H615.451ZM678.929 1250V1194H701.729C707.703 1194 712.929 1195.2 717.409 1197.6C721.943 1199.95 725.463 1203.23 727.969 1207.44C730.476 1211.65 731.729 1216.51 731.729 1222C731.729 1227.49 730.476 1232.35 727.969 1236.56C725.463 1240.77 721.943 1244.08 717.409 1246.48C712.929 1248.83 707.703 1250 701.729 1250H678.929ZM684.849 1244.88H701.409C706.369 1244.88 710.663 1243.92 714.289 1242C717.969 1240.03 720.823 1237.33 722.849 1233.92C724.876 1230.45 725.889 1226.48 725.889 1222C725.889 1217.47 724.876 1213.49 722.849 1210.08C720.823 1206.67 717.969 1204 714.289 1202.08C710.663 1200.11 706.369 1199.12 701.409 1199.12H684.849V1244.88ZM762.761 1250V1194H786.921C793.161 1194 797.987 1195.25 801.401 1197.76C804.867 1200.27 806.601 1203.81 806.601 1208.4C806.601 1211.44 805.881 1214 804.441 1216.08C803.054 1218.16 801.134 1219.73 798.681 1220.8C796.281 1221.87 793.641 1222.4 790.761 1222.4L792.121 1220.48C795.694 1220.48 798.761 1221.04 801.321 1222.16C803.934 1223.23 805.961 1224.85 807.401 1227.04C808.841 1229.17 809.561 1231.84 809.561 1235.04C809.561 1239.79 807.801 1243.47 804.281 1246.08C800.814 1248.69 795.561 1250 788.521 1250H762.761ZM768.681 1245.12H788.441C793.347 1245.12 797.107 1244.29 799.721 1242.64C802.334 1240.93 803.641 1238.24 803.641 1234.56C803.641 1230.93 802.334 1228.29 799.721 1226.64C797.107 1224.93 793.347 1224.08 788.441 1224.08H768.041V1219.2H786.521C791.001 1219.2 794.467 1218.35 796.921 1216.64C799.427 1214.93 800.681 1212.4 800.681 1209.04C800.681 1205.63 799.427 1203.09 796.921 1201.44C794.467 1199.73 791.001 1198.88 786.521 1198.88H768.681V1245.12ZM826.753 1219.04H856.353V1224.08H826.753V1219.04ZM827.393 1244.88H861.073V1250H821.473V1194H859.873V1199.12H827.393V1244.88ZM884.269 1250V1199.12H864.589V1194H909.869V1199.12H890.189V1250H884.269ZM929.388 1250V1199.12H909.708V1194H954.988V1199.12H935.308V1250H929.388ZM968.125 1219.04H997.725V1224.08H968.125V1219.04ZM968.765 1244.88H1002.45V1250H962.845V1194H1001.25V1199.12H968.765V1244.88ZM1014.76 1250V1194H1035.72C1040.47 1194 1044.55 1194.77 1047.96 1196.32C1051.37 1197.81 1053.99 1200 1055.8 1202.88C1057.67 1205.71 1058.6 1209.15 1058.6 1213.2C1058.6 1217.15 1057.67 1220.56 1055.8 1223.44C1053.99 1226.27 1051.37 1228.45 1047.96 1230C1044.55 1231.49 1040.47 1232.24 1035.72 1232.24H1018.04L1020.68 1229.52V1250H1014.76ZM1053 1250L1038.6 1229.68H1045L1059.48 1250H1053ZM1020.68 1230L1018.04 1227.2H1035.56C1041.16 1227.2 1045.4 1225.97 1048.28 1223.52C1051.21 1221.07 1052.68 1217.63 1052.68 1213.2C1052.68 1208.72 1051.21 1205.25 1048.28 1202.8C1045.4 1200.35 1041.16 1199.12 1035.56 1199.12H1018.04L1020.68 1196.32V1230ZM1103.03 1250L1084.15 1194H1090.23L1107.91 1246.72H1104.87L1123.11 1194H1128.55L1146.55 1246.72H1143.67L1161.51 1194H1167.19L1148.31 1250H1142.07L1124.87 1200H1126.47L1109.19 1250H1103.03ZM1200.46 1250.48C1196.24 1250.48 1192.32 1249.79 1188.7 1248.4C1185.12 1246.96 1182 1244.96 1179.34 1242.4C1176.72 1239.79 1174.67 1236.77 1173.18 1233.36C1171.74 1229.89 1171.02 1226.11 1171.02 1222C1171.02 1217.89 1171.74 1214.13 1173.18 1210.72C1174.67 1207.25 1176.72 1204.24 1179.34 1201.68C1182 1199.07 1185.12 1197.07 1188.7 1195.68C1192.27 1194.24 1196.19 1193.52 1200.46 1193.52C1204.67 1193.52 1208.56 1194.24 1212.14 1195.68C1215.71 1197.07 1218.8 1199.04 1221.42 1201.6C1224.08 1204.16 1226.14 1207.17 1227.58 1210.64C1229.07 1214.11 1229.82 1217.89 1229.82 1222C1229.82 1226.11 1229.07 1229.89 1227.58 1233.36C1226.14 1236.83 1224.08 1239.84 1221.42 1242.4C1218.8 1244.96 1215.71 1246.96 1212.14 1248.4C1208.56 1249.79 1204.67 1250.48 1200.46 1250.48ZM1200.46 1245.2C1203.82 1245.2 1206.91 1244.64 1209.74 1243.52C1212.62 1242.35 1215.1 1240.72 1217.18 1238.64C1219.31 1236.51 1220.96 1234.05 1222.14 1231.28C1223.31 1228.45 1223.9 1225.36 1223.9 1222C1223.9 1218.64 1223.31 1215.57 1222.14 1212.8C1220.96 1209.97 1219.31 1207.52 1217.18 1205.44C1215.1 1203.31 1212.62 1201.68 1209.74 1200.56C1206.91 1199.39 1203.82 1198.8 1200.46 1198.8C1197.1 1198.8 1193.98 1199.39 1191.1 1200.56C1188.22 1201.68 1185.71 1203.31 1183.58 1205.44C1181.5 1207.52 1179.84 1209.97 1178.62 1212.8C1177.44 1215.57 1176.86 1218.64 1176.86 1222C1176.86 1225.31 1177.44 1228.37 1178.62 1231.2C1179.84 1234.03 1181.5 1236.51 1183.58 1238.64C1185.71 1240.72 1188.22 1242.35 1191.1 1243.52C1193.98 1244.64 1197.1 1245.2 1200.46 1245.2ZM1241.49 1250V1194H1262.45C1267.19 1194 1271.27 1194.77 1274.69 1196.32C1278.1 1197.81 1280.71 1200 1282.53 1202.88C1284.39 1205.71 1285.33 1209.15 1285.33 1213.2C1285.33 1217.15 1284.39 1220.56 1282.53 1223.44C1280.71 1226.27 1278.1 1228.45 1274.69 1230C1271.27 1231.49 1267.19 1232.24 1262.45 1232.24H1244.77L1247.41 1229.52V1250H1241.49ZM1279.73 1250L1265.33 1229.68H1271.73L1286.21 1250H1279.73ZM1247.41 1230L1244.77 1227.2H1262.29C1267.89 1227.2 1272.13 1225.97 1275.01 1223.52C1277.94 1221.07 1279.41 1217.63 1279.41 1213.2C1279.41 1208.72 1277.94 1205.25 1275.01 1202.8C1272.13 1200.35 1267.89 1199.12 1262.29 1199.12H1244.77L1247.41 1196.32V1230ZM1302.82 1236.08L1302.58 1228.88L1336.5 1194H1343.3L1318.58 1219.92L1315.22 1223.52L1302.82 1236.08ZM1297.7 1250V1194H1303.62V1250H1297.7ZM1337.94 1250L1313.78 1222.16L1317.78 1217.84L1344.98 1250H1337.94ZM1375.42 1250.48C1371.21 1250.48 1367.29 1249.79 1363.66 1248.4C1360.09 1246.96 1356.97 1244.96 1354.3 1242.4C1351.69 1239.79 1349.64 1236.77 1348.14 1233.36C1346.7 1229.89 1345.98 1226.11 1345.98 1222C1345.98 1217.89 1346.7 1214.13 1348.14 1210.72C1349.64 1207.25 1351.69 1204.24 1354.3 1201.68C1356.97 1199.07 1360.09 1197.07 1363.66 1195.68C1367.24 1194.24 1371.16 1193.52 1375.42 1193.52C1379.64 1193.52 1383.53 1194.24 1387.1 1195.68C1390.68 1197.07 1393.77 1199.04 1396.38 1201.6C1399.05 1204.16 1401.1 1207.17 1402.54 1210.64C1404.04 1214.11 1404.78 1217.89 1404.78 1222C1404.78 1226.11 1404.04 1229.89 1402.54 1233.36C1401.1 1236.83 1399.05 1239.84 1396.38 1242.4C1393.77 1244.96 1390.68 1246.96 1387.1 1248.4C1383.53 1249.79 1379.64 1250.48 1375.42 1250.48ZM1375.42 1245.2C1378.78 1245.2 1381.88 1244.64 1384.7 1243.52C1387.58 1242.35 1390.06 1240.72 1392.14 1238.64C1394.28 1236.51 1395.93 1234.05 1397.1 1231.28C1398.28 1228.45 1398.86 1225.36 1398.86 1222C1398.86 1218.64 1398.28 1215.57 1397.1 1212.8C1395.93 1209.97 1394.28 1207.52 1392.14 1205.44C1390.06 1203.31 1387.58 1201.68 1384.7 1200.56C1381.88 1199.39 1378.78 1198.8 1375.42 1198.8C1372.06 1198.8 1368.94 1199.39 1366.06 1200.56C1363.18 1201.68 1360.68 1203.31 1358.54 1205.44C1356.46 1207.52 1354.81 1209.97 1353.58 1212.8C1352.41 1215.57 1351.82 1218.64 1351.82 1222C1351.82 1225.31 1352.41 1228.37 1353.58 1231.2C1354.81 1234.03 1356.46 1236.51 1358.54 1238.64C1360.68 1240.72 1363.18 1242.35 1366.06 1243.52C1368.94 1244.64 1372.06 1245.2 1375.42 1245.2ZM1439.01 1250.48C1431.86 1250.48 1426.24 1248.43 1422.13 1244.32C1418.02 1240.21 1415.97 1234.13 1415.97 1226.08V1194H1421.89V1225.84C1421.89 1232.45 1423.38 1237.33 1426.37 1240.48C1429.36 1243.63 1433.57 1245.2 1439.01 1245.2C1444.5 1245.2 1448.74 1243.63 1451.73 1240.48C1454.72 1237.33 1456.21 1232.45 1456.21 1225.84V1194H1461.97V1226.08C1461.97 1234.13 1459.92 1240.21 1455.81 1244.32C1451.76 1248.43 1446.16 1250.48 1439.01 1250.48ZM1488 1250V1199.12H1468.32V1194H1513.6V1199.12H1493.92V1250H1488ZM1540.79 1250V1194H1561.75C1566.5 1194 1570.58 1194.77 1573.99 1196.32C1577.41 1197.81 1580.02 1200 1581.83 1202.88C1583.7 1205.71 1584.63 1209.15 1584.63 1213.2C1584.63 1217.15 1583.7 1220.56 1581.83 1223.44C1580.02 1226.27 1577.41 1228.45 1573.99 1230C1570.58 1231.55 1566.5 1232.32 1561.75 1232.32H1544.07L1546.71 1229.52V1250H1540.79ZM1546.71 1230L1544.07 1227.12H1561.59C1567.19 1227.12 1571.43 1225.92 1574.31 1223.52C1577.25 1221.07 1578.71 1217.63 1578.71 1213.2C1578.71 1208.72 1577.25 1205.25 1574.31 1202.8C1571.43 1200.35 1567.19 1199.12 1561.59 1199.12H1544.07L1546.71 1196.32V1230ZM1595.83 1250V1194H1601.75V1244.88H1633.11V1250H1595.83ZM1632.38 1250L1657.98 1194H1663.82L1689.42 1250H1683.18L1659.66 1197.44H1662.06L1638.54 1250H1632.38ZM1642.46 1235.04L1644.22 1230.24H1676.78L1678.54 1235.04H1642.46ZM1697.09 1250V1194H1701.97L1740.61 1242.64H1738.05V1194H1743.89V1250H1739.01L1700.45 1201.36H1703.01V1250H1697.09ZM1760.56 1250V1194H1765.44L1804.08 1242.64H1801.52V1194H1807.36V1250H1802.48L1763.92 1201.36H1766.48V1250H1760.56ZM1824.04 1250V1194H1829.96V1250H1824.04ZM1846.58 1250V1194H1851.46L1890.1 1242.64H1887.54V1194H1893.38V1250H1888.5L1849.94 1201.36H1852.5V1250H1846.58ZM1934.62 1250.48C1930.35 1250.48 1926.41 1249.79 1922.78 1248.4C1919.21 1246.96 1916.09 1244.96 1913.42 1242.4C1910.81 1239.84 1908.75 1236.83 1907.26 1233.36C1905.82 1229.89 1905.1 1226.11 1905.1 1222C1905.1 1217.89 1905.82 1214.11 1907.26 1210.64C1908.75 1207.17 1910.83 1204.16 1913.5 1201.6C1916.17 1199.04 1919.29 1197.07 1922.86 1195.68C1926.49 1194.24 1930.43 1193.52 1934.7 1193.52C1938.97 1193.52 1942.86 1194.19 1946.38 1195.52C1949.95 1196.85 1952.99 1198.88 1955.5 1201.6L1951.82 1205.36C1949.47 1203.01 1946.89 1201.33 1944.06 1200.32C1941.23 1199.31 1938.19 1198.8 1934.94 1198.8C1931.47 1198.8 1928.27 1199.39 1925.34 1200.56C1922.46 1201.68 1919.93 1203.31 1917.74 1205.44C1915.61 1207.52 1913.93 1209.97 1912.7 1212.8C1911.53 1215.57 1910.94 1218.64 1910.94 1222C1910.94 1225.31 1911.53 1228.37 1912.7 1231.2C1913.93 1234.03 1915.61 1236.51 1917.74 1238.64C1919.93 1240.72 1922.46 1242.35 1925.34 1243.52C1928.27 1244.64 1931.45 1245.2 1934.86 1245.2C1938.06 1245.2 1941.07 1244.72 1943.9 1243.76C1946.78 1242.8 1949.42 1241.17 1951.82 1238.88L1955.18 1243.36C1952.51 1245.71 1949.39 1247.49 1945.82 1248.72C1942.25 1249.89 1938.51 1250.48 1934.62 1250.48ZM1949.5 1242.64V1222H1955.18V1243.36L1949.5 1242.64Z" fill="#404040"/>
<line x1="1999" y1="1218" x2="2079" y2="1218" stroke="#404040" stroke-width="6"/>
</svg>
