<svg xmlns="http://www.w3.org/2000/svg" width="256" height="256"><path fill="#1976D2" fill-opacity=".016" fill-rule="evenodd" d="M0 128.004v128.004l128.25-.254 128.25-.254.254-127.75L257.008 0H0zm.485.496c0 70.4.119 99.053.265 63.672s.146-92.98 0-128S.485 58.1.485 128.5"/><path fill="#1976D2" fill-opacity=".099" fill-rule="evenodd" d="M118.486 5.468c-16.285 3.547-34.632 13.991-43.689 24.87-5.755 6.913-10.969 17.186-13.274 26.155-1.475 5.739-13.957 114.828-13.328 116.476.23.6 50.256-22.992 51.374-24.228.12-.132 2.302-19.141 4.848-42.241 5.308-48.16 6.44-53.41 12.919-59.888 12.418-12.418 30.904-5.797 33.189 11.888.369 2.858-.485 18.219-1.995 35.862-1.452 16.974-2.46 31.041-2.24 31.261.673.673 50.078-23.529 50.851-24.91.397-.71 1.251-7.838 1.896-15.84 2.46-30.484-2.595-50.591-16.119-64.115-7.009-7.009-18.478-12.787-30.126-15.177-9.208-1.889-25.895-1.944-34.306-.113m62.33 109.057-24.685 12.417-.582 4.279c-.32 2.354-1.931 16.429-3.578 31.279-3.43 30.91-3.612 32.078-6.141 39.467-3.275 9.568-10.594 15.05-20.04 15.011-10.42-.043-16.966-5.297-18.384-14.757-.358-2.389.256-15.229 1.365-28.532 1.11-13.304 1.914-24.302 1.789-24.44-.126-.139-11.999 5.486-26.384 12.5L58.022 174.5l.002 13.5c.008 46.985 19.398 65.178 67.938 63.74 17.989-.533 23.512-1.77 36.538-8.183 14.579-7.178 24.172-19.119 31.396-39.082 4.558-12.599 5.75-20.102 9.566-60.217 3.779-39.726 3.948-42.287 2.788-42.204-.412.029-11.858 5.641-25.434 12.471"/><path fill="#1976D2" fill-opacity=".292" fill-rule="evenodd" d="M123.539 5.045C110.581 7.079 96.2 13.012 85.895 20.577 73.88 29.397 64.666 44.096 61.498 59.5c-1.396 6.789-13.493 112.479-12.965 113.274.191.287 49.55-23.524 50.282-24.255.23-.231 2.6-19.679 5.265-43.219 2.666-23.54 5.353-44.6 5.971-46.8 3.747-13.336 14.055-20.391 26.408-18.074 4.553.855 10.327 5.894 12.676 11.065 2.435 5.361 2.391 12.234-.291 45.241-1.217 14.978-1.969 27.477-1.671 27.775s11.593-4.821 25.099-11.377l24.558-11.918.835-5.856c.459-3.221.827-13.956.818-23.856-.013-14.048-.405-19.427-1.784-24.5-5.839-21.481-19.046-34.59-40.337-40.035-9.141-2.338-24.452-3.233-32.823-1.92M181.5 114.522c-13.2 6.842-24.281 12.561-24.624 12.709-.344.148-2.263 14.713-4.266 32.367-2.002 17.654-4.306 34.655-5.12 37.781-3.06 11.746-7.07 16.487-16.296 19.263-9.018 2.714-19.61-1.607-22.83-9.313-1.795-4.296-1.738-11.649.28-36.087.92-11.142 1.411-20.52 1.091-20.841-.321-.32-12.156 5.082-26.301 12.006l-25.718 12.588.585 15.752c.333 8.939 1.27 18.526 2.168 22.165 4.927 19.956 16.653 31.683 36.619 36.622 8.925 2.207 31.976 3.053 41.472 1.521 24.364-3.93 39.293-14.128 49.125-33.555 9.811-19.384 10.984-25.042 15.808-76.206 3.942-41.821 3.766-39.308 2.757-39.253-.412.023-11.55 5.639-24.75 12.481"/><path fill="#1976D2" fill-opacity=".85" fill-rule="evenodd" d="M182.01 114.593c-13.469 6.904-24.683 12.747-24.92 12.983-.236.237-2.112 15.062-4.168 32.944-4.402 38.292-6.009 44.954-12.304 51.007-8.503 8.177-21.488 8.536-29.216.809-5.398-5.399-5.823-10.076-3.442-37.856 1.123-13.097 1.876-23.977 1.675-24.179-.202-.201-11.728 5.292-25.613 12.208l-25.247 12.574.458 17.209c.403 15.106.779 18.185 3.078 25.208 8 24.435 25.232 34.047 60.689 33.851 18.249-.1 26.655-1.892 39.785-8.481 12.137-6.091 17.859-12.261 25.284-27.27 8.768-17.724 10.233-24.738 14.385-68.889 1.924-20.466 3.692-38.898 3.927-40.961.236-2.062.359-3.741.274-3.73-.085.01-11.175 5.668-24.645 12.573"/></svg>